<mxfile host="app.diagrams.net" modified="2023-11-04T16:58:14.476Z" agent="Mozilla/5.0 (Windows NT 10.0; Win64; x64) AppleWebKit/537.36 (KHTML, like Gecko) Chrome/119.0.0.0 Safari/537.36 Edg/119.0.0.0" etag="cd7UHsy3wOnQMzbh3Rr9" version="22.0.8" type="device">
  <diagram id="C5RBs43oDa-KdzZeNtuy" name="Page-1">
    <mxGraphModel dx="1109" dy="752" grid="1" gridSize="10" guides="1" tooltips="1" connect="1" arrows="1" fold="1" page="1" pageScale="1" pageWidth="827" pageHeight="1169" math="0" shadow="0">
      <root>
        <mxCell id="WIyWlLk6GJQsqaUBKTNV-0" />
        <mxCell id="WIyWlLk6GJQsqaUBKTNV-1" parent="WIyWlLk6GJQsqaUBKTNV-0" />
        <mxCell id="SiIIBgyMkAFlb2M5pcl_-3" style="edgeStyle=orthogonalEdgeStyle;rounded=0;orthogonalLoop=1;jettySize=auto;html=1;exitX=0.5;exitY=1;exitDx=0;exitDy=0;" edge="1" parent="WIyWlLk6GJQsqaUBKTNV-1" source="SiIIBgyMkAFlb2M5pcl_-1" target="SiIIBgyMkAFlb2M5pcl_-2">
          <mxGeometry relative="1" as="geometry" />
        </mxCell>
        <mxCell id="SiIIBgyMkAFlb2M5pcl_-1" value="User Performs Action on Website" style="rounded=1;whiteSpace=wrap;html=1;" vertex="1" parent="WIyWlLk6GJQsqaUBKTNV-1">
          <mxGeometry x="160" y="150" width="120" height="60" as="geometry" />
        </mxCell>
        <mxCell id="SiIIBgyMkAFlb2M5pcl_-6" style="edgeStyle=orthogonalEdgeStyle;rounded=0;orthogonalLoop=1;jettySize=auto;html=1;exitX=0.5;exitY=1;exitDx=0;exitDy=0;entryX=0.5;entryY=0;entryDx=0;entryDy=0;" edge="1" parent="WIyWlLk6GJQsqaUBKTNV-1" source="SiIIBgyMkAFlb2M5pcl_-2" target="SiIIBgyMkAFlb2M5pcl_-5">
          <mxGeometry relative="1" as="geometry" />
        </mxCell>
        <mxCell id="SiIIBgyMkAFlb2M5pcl_-2" value="Website Dispatches API call to update score" style="rounded=1;whiteSpace=wrap;html=1;" vertex="1" parent="WIyWlLk6GJQsqaUBKTNV-1">
          <mxGeometry x="160" y="240" width="120" height="60" as="geometry" />
        </mxCell>
        <mxCell id="SiIIBgyMkAFlb2M5pcl_-8" value="" style="edgeStyle=orthogonalEdgeStyle;rounded=0;orthogonalLoop=1;jettySize=auto;html=1;" edge="1" parent="WIyWlLk6GJQsqaUBKTNV-1" source="SiIIBgyMkAFlb2M5pcl_-5" target="SiIIBgyMkAFlb2M5pcl_-7">
          <mxGeometry relative="1" as="geometry" />
        </mxCell>
        <mxCell id="SiIIBgyMkAFlb2M5pcl_-5" value="server&amp;nbsp; receives request&amp;nbsp;" style="rounded=1;whiteSpace=wrap;html=1;" vertex="1" parent="WIyWlLk6GJQsqaUBKTNV-1">
          <mxGeometry x="160" y="330" width="120" height="60" as="geometry" />
        </mxCell>
        <mxCell id="SiIIBgyMkAFlb2M5pcl_-10" value="" style="edgeStyle=orthogonalEdgeStyle;rounded=0;orthogonalLoop=1;jettySize=auto;html=1;" edge="1" parent="WIyWlLk6GJQsqaUBKTNV-1" source="SiIIBgyMkAFlb2M5pcl_-7" target="SiIIBgyMkAFlb2M5pcl_-9">
          <mxGeometry relative="1" as="geometry" />
        </mxCell>
        <mxCell id="SiIIBgyMkAFlb2M5pcl_-7" value="Authenticate User" style="whiteSpace=wrap;html=1;rounded=1;" vertex="1" parent="WIyWlLk6GJQsqaUBKTNV-1">
          <mxGeometry x="160" y="420" width="120" height="60" as="geometry" />
        </mxCell>
        <mxCell id="SiIIBgyMkAFlb2M5pcl_-12" value="No" style="edgeStyle=orthogonalEdgeStyle;rounded=0;orthogonalLoop=1;jettySize=auto;html=1;" edge="1" parent="WIyWlLk6GJQsqaUBKTNV-1" source="SiIIBgyMkAFlb2M5pcl_-9" target="SiIIBgyMkAFlb2M5pcl_-11">
          <mxGeometry relative="1" as="geometry" />
        </mxCell>
        <mxCell id="SiIIBgyMkAFlb2M5pcl_-20" value="Yes" style="edgeStyle=orthogonalEdgeStyle;rounded=0;orthogonalLoop=1;jettySize=auto;html=1;" edge="1" parent="WIyWlLk6GJQsqaUBKTNV-1" source="SiIIBgyMkAFlb2M5pcl_-9" target="SiIIBgyMkAFlb2M5pcl_-19">
          <mxGeometry relative="1" as="geometry" />
        </mxCell>
        <mxCell id="SiIIBgyMkAFlb2M5pcl_-9" value="Is Authenticated?" style="rhombus;whiteSpace=wrap;html=1;rounded=1;" vertex="1" parent="WIyWlLk6GJQsqaUBKTNV-1">
          <mxGeometry x="160" y="505" width="120" height="75" as="geometry" />
        </mxCell>
        <mxCell id="SiIIBgyMkAFlb2M5pcl_-18" style="edgeStyle=orthogonalEdgeStyle;rounded=0;orthogonalLoop=1;jettySize=auto;html=1;exitX=0.5;exitY=1;exitDx=0;exitDy=0;entryX=0.5;entryY=0;entryDx=0;entryDy=0;" edge="1" parent="WIyWlLk6GJQsqaUBKTNV-1" source="SiIIBgyMkAFlb2M5pcl_-11" target="SiIIBgyMkAFlb2M5pcl_-17">
          <mxGeometry relative="1" as="geometry" />
        </mxCell>
        <mxCell id="SiIIBgyMkAFlb2M5pcl_-11" value="Response Unauthorized error" style="whiteSpace=wrap;html=1;rounded=1;" vertex="1" parent="WIyWlLk6GJQsqaUBKTNV-1">
          <mxGeometry x="160" y="630" width="120" height="60" as="geometry" />
        </mxCell>
        <mxCell id="SiIIBgyMkAFlb2M5pcl_-16" style="edgeStyle=orthogonalEdgeStyle;rounded=0;orthogonalLoop=1;jettySize=auto;html=1;exitX=0.5;exitY=1;exitDx=0;exitDy=0;entryX=0.5;entryY=0;entryDx=0;entryDy=0;" edge="1" parent="WIyWlLk6GJQsqaUBKTNV-1" source="SiIIBgyMkAFlb2M5pcl_-15" target="SiIIBgyMkAFlb2M5pcl_-1">
          <mxGeometry relative="1" as="geometry" />
        </mxCell>
        <mxCell id="SiIIBgyMkAFlb2M5pcl_-15" value="Start" style="ellipse;whiteSpace=wrap;html=1;" vertex="1" parent="WIyWlLk6GJQsqaUBKTNV-1">
          <mxGeometry x="160" y="70" width="120" height="50" as="geometry" />
        </mxCell>
        <mxCell id="SiIIBgyMkAFlb2M5pcl_-17" value="End" style="ellipse;whiteSpace=wrap;html=1;" vertex="1" parent="WIyWlLk6GJQsqaUBKTNV-1">
          <mxGeometry x="354" y="860" width="120" height="50" as="geometry" />
        </mxCell>
        <mxCell id="SiIIBgyMkAFlb2M5pcl_-22" value="" style="edgeStyle=orthogonalEdgeStyle;rounded=0;orthogonalLoop=1;jettySize=auto;html=1;" edge="1" parent="WIyWlLk6GJQsqaUBKTNV-1" source="SiIIBgyMkAFlb2M5pcl_-19" target="SiIIBgyMkAFlb2M5pcl_-21">
          <mxGeometry relative="1" as="geometry" />
        </mxCell>
        <mxCell id="SiIIBgyMkAFlb2M5pcl_-19" value="Validate request" style="whiteSpace=wrap;html=1;rounded=1;" vertex="1" parent="WIyWlLk6GJQsqaUBKTNV-1">
          <mxGeometry x="330" y="512.5" width="120" height="60" as="geometry" />
        </mxCell>
        <mxCell id="SiIIBgyMkAFlb2M5pcl_-24" value="" style="edgeStyle=orthogonalEdgeStyle;rounded=0;orthogonalLoop=1;jettySize=auto;html=1;" edge="1" parent="WIyWlLk6GJQsqaUBKTNV-1" source="SiIIBgyMkAFlb2M5pcl_-21" target="SiIIBgyMkAFlb2M5pcl_-23">
          <mxGeometry relative="1" as="geometry" />
        </mxCell>
        <mxCell id="SiIIBgyMkAFlb2M5pcl_-21" value="Update user score" style="whiteSpace=wrap;html=1;rounded=1;" vertex="1" parent="WIyWlLk6GJQsqaUBKTNV-1">
          <mxGeometry x="490" y="512.5" width="120" height="60" as="geometry" />
        </mxCell>
        <mxCell id="SiIIBgyMkAFlb2M5pcl_-26" value="" style="edgeStyle=orthogonalEdgeStyle;rounded=0;orthogonalLoop=1;jettySize=auto;html=1;" edge="1" parent="WIyWlLk6GJQsqaUBKTNV-1" source="SiIIBgyMkAFlb2M5pcl_-23" target="SiIIBgyMkAFlb2M5pcl_-25">
          <mxGeometry relative="1" as="geometry" />
        </mxCell>
        <mxCell id="SiIIBgyMkAFlb2M5pcl_-23" value="Store user score in DB" style="whiteSpace=wrap;html=1;rounded=1;" vertex="1" parent="WIyWlLk6GJQsqaUBKTNV-1">
          <mxGeometry x="650" y="512.5" width="120" height="60" as="geometry" />
        </mxCell>
        <mxCell id="SiIIBgyMkAFlb2M5pcl_-28" value="" style="edgeStyle=orthogonalEdgeStyle;rounded=0;orthogonalLoop=1;jettySize=auto;html=1;" edge="1" parent="WIyWlLk6GJQsqaUBKTNV-1" source="SiIIBgyMkAFlb2M5pcl_-25" target="SiIIBgyMkAFlb2M5pcl_-27">
          <mxGeometry relative="1" as="geometry" />
        </mxCell>
        <mxCell id="SiIIBgyMkAFlb2M5pcl_-25" value="Response success message and update score" style="whiteSpace=wrap;html=1;rounded=1;" vertex="1" parent="WIyWlLk6GJQsqaUBKTNV-1">
          <mxGeometry x="650" y="600" width="120" height="60" as="geometry" />
        </mxCell>
        <mxCell id="SiIIBgyMkAFlb2M5pcl_-29" style="edgeStyle=orthogonalEdgeStyle;rounded=0;orthogonalLoop=1;jettySize=auto;html=1;entryX=0.5;entryY=0;entryDx=0;entryDy=0;" edge="1" parent="WIyWlLk6GJQsqaUBKTNV-1" source="SiIIBgyMkAFlb2M5pcl_-27" target="SiIIBgyMkAFlb2M5pcl_-17">
          <mxGeometry relative="1" as="geometry" />
        </mxCell>
        <mxCell id="SiIIBgyMkAFlb2M5pcl_-27" value="Update scoreboard" style="whiteSpace=wrap;html=1;rounded=1;" vertex="1" parent="WIyWlLk6GJQsqaUBKTNV-1">
          <mxGeometry x="650" y="740" width="120" height="70" as="geometry" />
        </mxCell>
      </root>
    </mxGraphModel>
  </diagram>
</mxfile>
